<svg width="30" height="22" viewBox="0 0 30 22" fill="none" xmlns="http://www.w3.org/2000/svg">
<path d="M26.2895 3.25878C22.6467 0.532806 19.1565 0.609419 19.1565 0.609419L18.7998 1.01696C23.1305 2.31621 25.1431 4.22678 25.1431 4.22678C18.947 0.815417 11.0548 0.839895 4.6101 4.22678C4.6101 4.22678 6.69901 2.21417 11.2847 0.914919L11.03 0.609101C11.03 0.609101 7.56528 0.532806 3.89706 3.25846C3.89706 3.25846 0.228516 9.85643 0.228516 17.9832C0.228516 17.9832 2.3686 21.6517 7.99857 21.83C7.99857 21.83 8.94114 20.7091 9.70537 19.7411C6.47012 18.7731 5.24717 16.7605 5.24717 16.7605C7.27981 18.0324 9.33502 18.8285 11.8963 19.3336C16.0633 20.1913 21.2466 19.3094 25.118 16.7605C25.118 16.7605 23.8442 18.824 20.5069 19.7666C21.2711 20.7091 22.1883 21.8046 22.1883 21.8046C27.8182 21.6263 29.958 17.9577 29.958 17.9835C29.9577 9.85675 26.2895 3.25878 26.2895 3.25878ZM10.3421 15.6142C8.91539 15.6142 7.74362 14.3658 7.74362 12.8119C7.84789 9.09029 12.8624 9.10174 12.9406 12.8119C12.9406 14.3658 11.794 15.6142 10.3421 15.6142ZM19.6403 15.6142C18.2136 15.6142 17.0418 14.3658 17.0418 12.8119C17.1563 9.09761 22.1081 9.09602 22.2388 12.8119C22.2388 14.3658 21.0925 15.6142 19.6403 15.6142Z" fill="white"/>
</svg>
