<svg xmlns="http://www.w3.org/2000/svg">
    <symbol id="round-icon" viewBox="0 0 50 50">
        <path fill="#FFFFFF" d="M25,0C11.192,0,0,11.193,0,25s11.192,25,25,25c13.807,0,25-11.193,25-25S38.807,0,25,0z M30.506,25.354
	L20.201,35.659c-0.098,0.098-0.226,0.146-0.354,0.146s-0.256-0.049-0.354-0.146c-0.195-0.195-0.195-0.512,0-0.707L29.445,25
	l-9.952-9.952c-0.195-0.195-0.195-0.512,0-0.707s0.512-0.195,0.707,0l10.305,10.306C30.701,24.842,30.701,25.158,30.506,25.354z"/>
    </symbol>
    <symbol id="discord-icon" viewBox="0 0 30 22">
        <path d="M26.2895 3.25878C22.6467 0.532806 19.1565 0.609419 19.1565 0.609419L18.7998 1.01696C23.1305 2.31621 25.1431 4.22678 25.1431 4.22678C18.947 0.815417 11.0548 0.839895 4.6101 4.22678C4.6101 4.22678 6.69901 2.21417 11.2847 0.914919L11.03 0.609101C11.03 0.609101 7.56528 0.532806 3.89706 3.25846C3.89706 3.25846 0.228516 9.85643 0.228516 17.9832C0.228516 17.9832 2.3686 21.6517 7.99857 21.83C7.99857 21.83 8.94114 20.7091 9.70537 19.7411C6.47012 18.7731 5.24717 16.7605 5.24717 16.7605C7.27981 18.0324 9.33502 18.8285 11.8963 19.3336C16.0633 20.1913 21.2466 19.3094 25.118 16.7605C25.118 16.7605 23.8442 18.824 20.5069 19.7666C21.2711 20.7091 22.1883 21.8046 22.1883 21.8046C27.8182 21.6263 29.958 17.9577 29.958 17.9835C29.9577 9.85675 26.2895 3.25878 26.2895 3.25878ZM10.3421 15.6142C8.91539 15.6142 7.74362 14.3658 7.74362 12.8119C7.84789 9.09029 12.8624 9.10174 12.9406 12.8119C12.9406 14.3658 11.794 15.6142 10.3421 15.6142ZM19.6403 15.6142C18.2136 15.6142 17.0418 14.3658 17.0418 12.8119C17.1563 9.09761 22.1081 9.09602 22.2388 12.8119C22.2388 14.3658 21.0925 15.6142 19.6403 15.6142Z" fill="white"/>
    </symbol>
    
    <symbol id="twitter-icon" viewBox="0 0 24 20">
        <path fill-rule="evenodd" clip-rule="evenodd" d="M23.3807 1.15739C23.4746 1.31659 23.524 1.49748 23.5239 1.68163C23.563 2.48123 23.4398 3.2805 23.1616 4.03257C22.8833 4.78465 22.4556 5.47441 21.9034 6.06143C21.9045 6.13167 21.9045 6.2019 21.9045 6.27012C21.9025 7.55754 21.7118 8.83792 21.3384 10.0716C20.54 12.9036 18.8146 15.3962 16.4304 17.1616C14.0462 18.9268 11.137 19.8661 8.15527 19.833C5.52591 19.8334 2.95208 19.0873 0.741547 17.6839C0.539858 17.556 0.388204 17.3645 0.311474 17.1406C0.234742 16.9167 0.237484 16.6738 0.319247 16.4516C0.401023 16.2294 0.556959 16.0413 0.761483 15.9179C0.966007 15.7946 1.20698 15.7435 1.44487 15.7729C2.73017 15.9264 4.03404 15.7658 5.24159 15.3056C4.05302 14.6323 3.16209 13.5461 2.74315 12.2595C2.7002 12.1279 2.68429 11.9891 2.69635 11.8514C2.70841 11.7137 2.74819 11.5797 2.81339 11.4572C1.85245 10.5435 1.26267 9.31567 1.15465 8.00391C1.13414 7.85205 1.12481 7.69894 1.12676 7.54576C1.12635 7.36008 1.17429 7.1774 1.26596 7.01519C1.35765 6.85299 1.49002 6.71668 1.65041 6.6193L1.65247 6.61727C1.29561 5.82715 1.13282 4.9652 1.17732 4.10142C1.22183 3.23764 1.47238 2.39639 1.90862 1.64598C1.99367 1.49914 2.11374 1.37494 2.25843 1.28413C2.40311 1.1933 2.56807 1.13859 2.73902 1.12472C2.91007 1.11186 3.08175 1.13975 3.23958 1.20602C3.3974 1.2723 3.53674 1.375 3.64585 1.5055C5.4567 3.69518 8.02182 5.15131 10.852 5.59619C10.8984 4.18179 11.5006 2.84048 12.5314 1.85553C13.5622 0.870572 14.941 0.319047 16.3767 0.317418C17.6854 0.31272 18.952 0.772398 19.9451 1.61243C20.6406 1.42705 21.307 1.1489 21.926 0.785711C22.0866 0.691499 22.2696 0.6409 22.4563 0.639071C22.6431 0.637242 22.8271 0.684245 22.9895 0.775296C23.1518 0.86634 23.2869 0.998187 23.3807 1.15739ZM19.2413 3.72489C19.2534 3.74733 19.2651 3.76965 19.2764 3.79183C19.2952 3.78024 19.3146 3.76834 19.3346 3.75615C19.3238 3.7531 19.3131 3.74988 19.3025 3.74648C19.2818 3.7399 19.2614 3.7327 19.2413 3.72489Z" fill="white"/>    
    </symbol>

</svg>