<svg width="94" height="94" viewBox="0 0 94 94" fill="none" xmlns="http://www.w3.org/2000/svg">
<path d="M81.0135 59.4982C88.1335 40.9463 78.8613 20.1369 60.3035 13.0192C41.7457 5.90153 20.9297 15.1709 13.8098 33.7228C6.68982 52.2747 15.962 73.084 34.5198 80.2017C53.0777 87.3194 73.8936 78.0502 81.0135 59.4982Z" fill="url(#paint0_radial_102_788)"/>
<path opacity="0.55" d="M64.2208 34.6556C62.6202 36.2556 60.5808 37.3452 58.3608 37.7865C56.1407 38.2279 53.8397 38.0013 51.7485 37.1353C49.6573 36.2693 47.8698 34.8028 46.6123 32.9213C45.3548 31.0399 44.6836 28.8278 44.6836 26.565C44.6836 24.3022 45.3548 22.0902 46.6123 20.2087C47.8698 18.3273 49.6573 16.8608 51.7485 15.9948C53.8397 15.1288 56.1407 14.9022 58.3608 15.3435C60.5808 15.7849 62.6202 16.8745 64.2208 18.4744C65.2861 19.5355 66.1315 20.7964 66.7082 22.1848C67.285 23.5731 67.5819 25.0617 67.5819 26.565C67.5819 28.0684 67.285 29.5569 66.7082 30.9453C66.1315 32.3337 65.2861 33.5946 64.2208 34.6556Z" fill="url(#paint1_radial_102_788)"/>
<defs>
<radialGradient id="paint0_radial_102_788" cx="0" cy="0" r="1" gradientUnits="userSpaceOnUse" gradientTransform="translate(49.4752 31.4828) rotate(44.5909) scale(54.6612 54.661)">
<stop stop-color="#FEFFB7"/>
<stop offset="0.17" stop-color="#FCEAB7"/>
<stop offset="0.52" stop-color="#F7B4B6"/>
<stop offset="0.55" stop-color="#F7B0B6"/>
<stop offset="0.87" stop-color="#CF65B0"/>
<stop offset="1" stop-color="#FEFFB7"/>
</radialGradient>
<radialGradient id="paint1_radial_102_788" cx="0" cy="0" r="1" gradientUnits="userSpaceOnUse" gradientTransform="translate(56.1128 26.5653) rotate(44.5908) scale(11.4431)">
<stop stop-color="white"/>
<stop offset="0.07" stop-color="white" stop-opacity="0.92"/>
<stop offset="0.22" stop-color="white" stop-opacity="0.7"/>
<stop offset="0.44" stop-color="white" stop-opacity="0.36"/>
<stop offset="0.66" stop-color="white" stop-opacity="0"/>
</radialGradient>
</defs>
</svg>
