<svg width="189" height="190" viewBox="0 0 189 190" fill="none" xmlns="http://www.w3.org/2000/svg">
<path d="M138.288 145.575C166.262 121.544 169.454 79.3916 145.418 51.4239C121.383 23.4563 79.2205 20.2647 51.2467 44.2951C23.2729 68.3256 20.0805 110.478 44.1163 138.446C68.1521 166.414 110.314 169.605 138.288 145.575Z" fill="url(#paint0_radial_102_346)"/>
<path opacity="0.55" d="M89.3125 57.1098C90.599 61.1039 90.6728 65.3896 89.5244 69.4255C88.3761 73.4614 86.0571 77.0666 82.8605 79.7856C79.6639 82.5046 75.7329 84.2155 71.5643 84.7021C67.3956 85.1887 63.1762 84.4292 59.439 82.5196C55.7018 80.61 52.6145 77.6359 50.5671 73.9731C48.5196 70.3102 47.6039 66.1228 47.9355 61.9398C48.2672 57.7569 49.8313 53.766 52.4304 50.4714C55.0294 47.1767 58.5468 44.726 62.5382 43.4289C65.1946 42.5657 67.9952 42.2349 70.7797 42.4555C73.5641 42.6762 76.2777 43.444 78.7648 44.7148C81.252 45.9857 83.4639 47.7347 85.2739 49.8617C87.0838 51.9886 88.4562 54.4517 89.3125 57.1098Z" fill="url(#paint1_radial_102_346)"/>
<defs>
<radialGradient id="paint0_radial_102_346" cx="0" cy="0" r="1" gradientUnits="userSpaceOnUse" gradientTransform="translate(66.1121 67.4138) rotate(-18.2235) scale(101.001 100.983)">
<stop stop-color="#FEFFB7"/>
<stop offset="0.17" stop-color="#FCEAB7"/>
<stop offset="0.52" stop-color="#F7B4B6"/>
<stop offset="0.55" stop-color="#F7B0B6"/>
<stop offset="0.87" stop-color="#CF65B0"/>
<stop offset="1" stop-color="#FEFFB7"/>
</radialGradient>
<radialGradient id="paint1_radial_102_346" cx="0" cy="0" r="1" gradientUnits="userSpaceOnUse" gradientTransform="translate(69.0511 63.7924) rotate(-18.0763) scale(21.2323 21.2285)">
<stop stop-color="white"/>
<stop offset="0.07" stop-color="white" stop-opacity="0.92"/>
<stop offset="0.22" stop-color="white" stop-opacity="0.7"/>
<stop offset="0.44" stop-color="white" stop-opacity="0.36"/>
<stop offset="0.66" stop-color="white" stop-opacity="0"/>
</radialGradient>
</defs>
</svg>
