<svg width="478" height="15" viewBox="0 0 478 15" fill="none" xmlns="http://www.w3.org/2000/svg">
<path d="M429.439 14.3962C416.688 14.3962 410.292 11.1273 404.141 7.96057C397.99 4.79381 392.775 2.1378 381.817 2.1378C370.859 2.1378 365.237 4.95725 359.453 7.96057C353.668 10.9639 346.906 14.3962 334.155 14.3962C321.404 14.3962 315.009 11.1273 308.858 7.96057C302.706 4.79381 297.532 2.1378 286.493 2.1378C275.453 2.1378 269.913 4.95725 264.087 7.96057C258.262 10.9639 251.581 14.3962 238.831 14.3962C226.08 14.3962 219.684 11.1273 213.533 7.96057C207.382 4.79381 202.208 2.1378 191.168 2.1378C180.129 2.1378 174.629 4.95725 168.804 7.96057C162.979 10.9639 156.501 14.3962 143.506 14.3962C130.511 14.3962 124.36 11.1273 118.208 7.96057C112.057 4.79381 106.924 2.1378 95.8439 2.1378C84.7635 2.1378 79.3048 4.95725 73.4794 7.96057C67.654 10.9639 60.9731 14.3962 48.1817 14.3962C35.3903 14.3962 29.0762 11.1273 22.925 7.96057C16.7737 4.79381 11.6 2.1378 0.519531 2.1378V0.0947266C13.3109 0.0947266 19.6659 3.36363 25.8171 6.5304C31.9684 9.69716 37.142 12.3532 48.1817 12.3532C59.2214 12.3532 64.7616 9.53371 70.587 6.5304C76.4124 3.52708 83.1747 0.0947266 95.8439 0.0947266C108.513 0.0947266 114.99 3.36363 121.142 6.5304C127.293 9.69716 132.466 12.3532 143.506 12.3532C154.546 12.3532 160.045 9.53371 165.871 6.5304C171.696 3.52708 178.377 0.0947266 191.168 0.0947266C203.96 0.0947266 210.315 3.36363 216.466 6.5304C222.617 9.69716 227.75 12.3532 238.831 12.3532C249.911 12.3532 255.37 9.53371 261.195 6.5304C267.021 3.52708 273.701 0.0947266 286.493 0.0947266C299.284 0.0947266 305.598 3.36363 311.79 6.5304C317.982 9.69716 323.075 12.3532 334.155 12.3532C345.235 12.3532 350.694 9.53371 356.52 6.5304C362.345 3.52708 369.026 0.0947266 381.817 0.0947266C394.609 0.0947266 400.964 3.36363 407.115 6.5304C413.266 9.69716 418.44 12.3532 429.439 12.3532C440.438 12.3532 446.019 9.53371 451.844 6.5304C457.669 3.52708 464.35 0.0947266 477.142 0.0947266V2.1378C466.102 2.1378 460.602 4.95725 454.777 7.96057C448.952 10.9639 442.271 14.3962 429.439 14.3962Z" fill="url(#paint0_linear_102_255)"/>
<defs>
<linearGradient id="paint0_linear_102_255" x1="0.519531" y1="7.30677" x2="477.183" y2="7.30677" gradientUnits="userSpaceOnUse">
<stop stop-color="#F250FE"/>
<stop offset="1" stop-color="#722FBA"/>
</linearGradient>
</defs>
</svg>
