<svg width="337" height="50" viewBox="0 0 337 50" fill="none" xmlns="http://www.w3.org/2000/svg">
<path d="M336.883 0.239354L336.883 7.20558C328.879 7.20558 324.947 16.9583 320.782 27.2683C316.616 37.5783 312.029 49.0029 303.183 49.0029C294.336 49.0029 289.89 37.9266 285.607 27.2683C281.324 16.61 277.439 7.20558 269.506 7.20558C261.572 7.20558 257.57 16.9583 253.405 27.2683C249.239 37.5783 244.675 49.0029 235.829 49.0029C226.983 49.0029 222.536 37.9266 218.23 27.2683C213.924 16.61 210.156 7.20558 202.152 7.20558C194.149 7.20558 190.217 16.9583 186.075 27.2683C181.932 37.5783 177.322 49.0029 168.476 49.0029C159.63 49.0029 155.183 37.9266 150.9 27.2683C146.618 16.61 142.803 7.20558 134.799 7.20558C126.795 7.20558 122.887 16.9583 118.721 27.2683C114.556 37.5783 109.969 49.0029 101.122 49.0029C92.2761 49.0029 87.853 37.9266 83.5468 27.2683C79.2407 16.61 75.4495 7.20558 67.4691 7.20558C59.4887 7.20558 55.5336 16.9583 51.3679 27.2683C47.2022 37.5783 42.6387 49.0029 33.7924 49.0029C24.9462 49.0029 20.4996 37.9266 16.2169 27.2683C11.9342 16.61 8.1195 7.20558 0.115723 7.20558L0.115723 0.23935C8.962 0.23935 13.4085 11.246 17.7146 21.9043C22.0208 32.5626 25.7887 42.0367 33.7924 42.0367C41.7962 42.0367 45.7045 32.2143 49.8702 21.9043C54.0359 11.5943 58.6228 0.239351 67.4691 0.239351C76.3154 0.239351 80.7385 11.246 85.0447 21.9043C89.3508 32.5626 93.142 42.0367 101.122 42.0367C109.103 42.0367 113.058 32.2143 117.224 21.9043C121.389 11.5943 125.953 0.239352 134.799 0.239352C143.645 0.239352 148.092 11.246 152.398 21.9043C156.704 32.5626 160.425 42.0367 168.476 42.0367C176.526 42.0367 180.411 32.2143 184.577 21.9043C188.743 11.5943 193.306 0.239353 202.152 0.239353C210.999 0.239353 215.445 11.246 219.728 21.9043C224.011 32.5626 227.825 42.0367 235.829 42.0367C243.833 42.0367 247.765 32.2143 251.907 21.9043C256.049 11.5943 260.66 0.239353 269.506 0.239354C278.352 0.239354 282.799 11.246 287.105 21.9043C291.411 32.5626 295.202 42.0367 303.183 42.0367C311.163 42.0367 315.118 32.2143 319.284 21.9043C323.449 11.5943 328.036 0.239354 336.883 0.239354Z" fill="url(#paint0_linear_102_645)"/>
<defs>
<linearGradient id="paint0_linear_102_645" x1="-15.0961" y1="24.5515" x2="313.152" y2="24.5515" gradientUnits="userSpaceOnUse">
<stop stop-color="#CF65B0"/>
<stop offset="0.99" stop-color="#FEFFB7"/>
</linearGradient>
</defs>
</svg>
